<svg width="60" height="60" viewBox="0 0 60 60" fill="none" xmlns="http://www.w3.org/2000/svg">
<path d="M4.16675 25.0002L3.38588 24.3755L2.88612 25.0002L3.38588 25.6249L4.16675 25.0002ZM22.9167 26.0002C23.469 26.0002 23.9167 25.5524 23.9167 25.0002C23.9167 24.4479 23.469 24.0002 22.9167 24.0002V26.0002ZM11.7192 13.9588L3.38588 24.3755L4.94762 25.6249L13.2809 15.2082L11.7192 13.9588ZM3.38588 25.6249L11.7192 36.0415L13.2809 34.7921L4.94762 24.3755L3.38588 25.6249ZM4.16675 26.0002H22.9167V24.0002H4.16675V26.0002Z" fill="#656565"/>
<path d="M20.8333 16.9414V11.7217C20.8333 10.1033 20.8333 9.29417 21.3072 8.73468C21.7812 8.17518 22.5793 8.04216 24.1757 7.7761L38.8469 5.3309C42.09 4.79039 43.7115 4.52013 44.7724 5.41883C45.8333 6.31752 45.8333 7.96144 45.8333 11.2493V38.7504C45.8333 42.0382 45.8333 43.6822 44.7724 44.5809C43.7115 45.4795 42.09 45.2093 38.8469 44.6688L24.1757 42.2236C22.5793 41.9575 21.7812 41.8245 21.3072 41.265C20.8333 40.7055 20.8333 39.8963 20.8333 38.278V33.4706" stroke="#656565" stroke-width="2"/>
</svg>
